<?xml version="1.0" standalone="no"?><!DOCTYPE svg PUBLIC "-//W3C//DTD SVG 1.1//EN" "http://www.w3.org/Graphics/SVG/1.1/DTD/svg11.dtd"><svg t="1725768400191" class="icon" viewBox="0 0 1026 1024" version="1.1" xmlns="http://www.w3.org/2000/svg" p-id="1513" width="128.25" height="128" xmlns:xlink="http://www.w3.org/1999/xlink"><path d="M510.51707 539.739l-223.17-127.63V148.1l223.17-126.9 223.898 126.9v262.552L510.51707 539.739z m0 0" p-id="1514" fill="#0061b2"></path><path d="M510.51707 558.7a20.42 20.42 0 0 1-8.752 0L277.86707 428.885a20.42 20.42 0 0 1-8.752-16.775V148.1a18.962 18.962 0 0 1 9.481-16.044L501.76507 2.238a18.233 18.233 0 0 1 17.503 0l224.628 131.275a19.691 19.691 0 0 1 8.751 16.045v262.551a18.962 18.962 0 0 1-9.48 16.775l-224.628 126.9a18.233 18.233 0 0 1-8.752 0zM305.58007 401.9l204.936 116.689 205.665-117.42V160.499L510.51707 42.35 304.85007 160.498z m0 0" p-id="1515" fill="#0061b2"></path><path d="M510.51707 477.018l174.305-97.728V184.565l-174.305 96.998zM241.40007 1003.579L18.96207 877.41v-264.01L242.13107 485.04 466.02907 613.4v264.01L241.40007 1003.579z m0 0" p-id="1516" fill="#0061b2"></path><path d="M241.40107 1023.27a17.503 17.503 0 0 1-8.751 0L9.48007 891.996A18.962 18.962 0 0 1 0.00007 877.409v-264.01a18.233 18.233 0 0 1 9.481-16.045l223.898-128.358a15.315 15.315 0 0 1 17.503 0L474.78007 597.354a18.233 18.233 0 0 1 9.481 16.045v264.01a18.233 18.233 0 0 1-9.48 16.045L250.15207 1023.27a17.503 17.503 0 0 1-8.752 0zM37.19507 865.01L241.40007 982.43l206.395-117.42V624.339L242.13107 506.19 36.46507 624.338v240.673z m0 0" p-id="1517" fill="#0061b2"></path><path d="M242.86007 940.13l173.576-96.999V648.406L242.86007 745.404z m534.584 63.45l-222.44-126.171v-264.01L778.90207 485.04 1002.80007 613.4v264.01z m0 0" p-id="1518" fill="#0061b2"></path><path d="M777.44407 1023.27a19.691 19.691 0 0 1-8.752 0L549.90007 895.643a18.233 18.233 0 0 1-13.127-18.233v-264.01a18.233 18.233 0 0 1 9.48-16.045l223.17-128.358a15.315 15.315 0 0 1 17.503 0l224.627 128.358a18.962 18.962 0 0 1 8.752 16.045v264.01a18.962 18.962 0 0 1-8.752 16.045L786.19607 1023.27a17.503 17.503 0 0 1-8.752 0z m-204.207-156.8l204.207 117.418 206.394-117.419V624.34L778.17307 506.19 572.50807 624.338z m0 0" p-id="1519" fill="#0061b2"></path><path d="M778.90207 940.13l173.576-96.999V648.406l-173.576 96.998v194.725z m0 0" p-id="1520" fill="#0061b2"></path></svg>