<svg
  t="1721877231473"
  class="icon"
  viewBox="0 0 1024 1024"
  version="1.1"
  xmlns="http://www.w3.org/2000/svg"
  p-id="9070"
  id="mx_n_1721877231474"
  width="200"
  height="200"
>
  <defs>
    <linearGradient
      id="gradient"
      x1="0%"
      y1="0%"
      x2="100%"
      y2="100%"
    >
      <stop offset="0%" style="stop-color:#ADD8E6;stop-opacity:1" />
      <stop
        offset="25%"
        style="stop-color:#98FB98;stop-opacity:1"
      />
      <stop
        offset="50%"
        style="stop-color:#DDA0DD;stop-opacity:1"
      />
      <stop
        offset="75%"
        style="stop-color:#FFB6C1;stop-opacity:1"
      />
      <stop
        offset="100%"
        style="stop-color:#FFD700;stop-opacity:1"
      />
    </linearGradient>
  </defs>
  <path
    d="M554.666667 896a42.666667 42.666667 0 0 1-85.333334 0v-128a42.666667 42.666667 0 0 1 85.333334 0z m0-640a42.666667 42.666667 0 0 1-85.333334 0V128a42.666667 42.666667 0 0 1 85.333334 0z m384 256a42.666667 42.666667 0 0 0-42.666667-42.666667h-128a42.666667 42.666667 0 0 0 0 85.333334h128a42.666667 42.666667 0 0 0 42.666667-42.666667z m-682.666667-42.666667a42.666667 42.666667 0 0 1 0 85.333334H128a42.666667 42.666667 0 0 1 0-85.333334z m557.653333 344.32a42.666667 42.666667 0 0 0 0-60.373333l-90.453333-90.453333a42.666667 42.666667 0 0 0-60.373333 60.373333l90.453333 90.453333a42.666667 42.666667 0 0 0 60.373333 0z m-452.48-512a42.666667 42.666667 0 1 1-60.373333 60.373334l-90.453333-91.306667a42.666667 42.666667 0 1 1 60.373333-60.373333z m452.48-91.306666a42.666667 42.666667 0 0 0-60.373333 0l-90.453333 90.453333a42.666667 42.666667 0 1 0 60.373333 60.373333l90.453333-90.453333a42.666667 42.666667 0 0 0 0-60.373333z m-512 452.48a42.666667 42.666667 0 1 1 60.373334 60.373333l-90.453334 90.453333a42.666667 42.666667 0 1 1-60.373333-60.373333z"
    p-id="9071"
    fill="url(#gradient)"
  ></path>
</svg>